<svg xmlns="http://www.w3.org/2000/svg" width="12.713" height="16.675"><path d="M12.713 15.84c0-3.583-1.153-6.851-3.019-8.68a5.667 5.667 0 00.83-2.833 4.327 4.327 0 00-8.655 0 5.718 5.718 0 00.951 3.038C1.07 9.226 0 12.386 0 15.844V16.259a.417.417 0 00.417.416h11.88a.417.417 0 00.416-.416v-.009zM6.197 1.664a2.667 2.667 0 012.66 2.66c0 1.527-1.25 3.466-2.66 3.466S3.536 5.851 3.536 4.324a2.667 2.667 0 012.66-2.66zM3.933 8.6a3.615 3.615 0 002.264.857 3.688 3.688 0 002.442-1 10.596 10.596 0 012.384 6.552H1.69a10.828 10.828 0 012.243-6.41z" fill="#006de3"/></svg>