<svg width="13" height="14" xmlns="http://www.w3.org/2000/svg"><path d="M12.053 9.529a11.323 11.323 0 0 1-.948-4.534c.06-1.764-.818-3.42-2.29-4.32a4.557 4.557 0 0 0-4.773 0c-1.471.9-2.35 2.556-2.29 4.32v.077a11.175 11.175 0 0 1-.894 4.409l-.79 1.852a.83.83 0 0 0 .06.772l.272.37h4.114c.24.9 1.034 1.525 1.94 1.525.905 0 1.7-.624 1.94-1.525h3.728a.777.777 0 0 0 .663-.37l.215-.408-.947-2.168zm-10.27 1.46.388-.912a12.68 12.68 0 0 0 1.017-5.005v-.077c-.056-1.23.548-2.394 1.574-3.027a3.159 3.159 0 0 1 3.33 0c1.026.633 1.63 1.796 1.575 3.027 0 1.776.368 3.53 1.077 5.148l.373.847H1.782z" fill="#006DE3" fill-rule="evenodd"/></svg>