<svg xmlns="http://www.w3.org/2000/svg" width="32" height="32"><path d="M15.978 32a16 16 0 1115.978-16 16.007 16.007 0 01-15.978 16zm0-30.72A14.72 14.72 0 1030.676 16 14.725 14.725 0 0015.978 1.28z" fill="#006de3"/><path fill="#006de3" d="M12.982 22H9.987v-9h2.995v9zM11.492 12a1.5 1.5 0 111.49-1.507A1.498 1.498 0 0111.492 12zM22.965 22h-2.557v-4.272c0-1.019-.02-2.324-1.334-2.324-1.334 0-1.537 1.106-1.537 2.25V22H14.98v-8.776h2.457v1.197h.037A2.66 2.66 0 0119.9 13c2.593 0 3.07 1.817 3.07 4.176V22z"/></svg>